<svg width="14" height="14" viewBox="0 0 14 14" fill="none" xmlns="http://www.w3.org/2000/svg">
<path d="M8.59094 6.99988L13.0441 2.54675C13.2554 2.33578 13.3743 2.04949 13.3745 1.75087C13.3748 1.45225 13.2564 1.16575 13.0455 0.954408C12.8345 0.743063 12.5482 0.624183 12.2496 0.623919C11.951 0.623656 11.6645 0.74203 11.4531 0.953001L7 5.40613L2.54687 0.953001C2.33553 0.741657 2.04888 0.622925 1.75 0.622925C1.45111 0.622925 1.16447 0.741657 0.953123 0.953001C0.741779 1.16435 0.623047 1.45099 0.623047 1.74988C0.623047 2.04876 0.741779 2.33541 0.953123 2.54675L5.40625 6.99988L0.953123 11.453C0.741779 11.6643 0.623047 11.951 0.623047 12.2499C0.623047 12.5488 0.741779 12.8354 0.953123 13.0468C1.16447 13.2581 1.45111 13.3768 1.75 13.3768C2.04888 13.3768 2.33553 13.2581 2.54687 13.0468L7 8.59363L11.4531 13.0468C11.6645 13.2581 11.9511 13.3768 12.25 13.3768C12.5489 13.3768 12.8355 13.2581 13.0469 13.0468C13.2582 12.8354 13.3769 12.5488 13.3769 12.2499C13.3769 11.951 13.2582 11.6643 13.0469 11.453L8.59094 6.99988Z" fill="#1F1D25" fill-opacity="0.3"/>
</svg>
