<svg width="46" height="30" viewBox="0 0 46 30" fill="none" xmlns="http://www.w3.org/2000/svg">
<path fill-rule="evenodd" clip-rule="evenodd" d="M20.5 15C20.5 14.1088 20.3703 13.2426 20.1257 12.4138C19.4062 10.2155 19.1719 9.76293 17.6835 8.27586C15.7714 6.27095 13.0236 4.83724 9.875 4.33474V8.27586V12.4138V17.3276V21.4655V25.6653V29.8585C9.0578 29.9518 8.2232 30 7.375 30H4.875V21.4655V17.3276V12.4138V8.27586V0H7.375C14.0305 0 19.8482 2.96876 23 7.39343C21.4531 10.0535 20.8712 11.7184 20.5 15Z" fill="#1F1D25"/>
<path fill-rule="evenodd" clip-rule="evenodd" d="M25.802 17.3276C25.6042 16.5777 25.5 15.7989 25.5 15C25.2037 18.1438 24.6075 19.8052 23 22.6066C25.3035 25.8403 29.031 28.2965 33.4688 29.3843L33.4687 24.9918C31.3141 24.2293 29.456 23.0034 28.0774 21.4655C26.7225 20.051 26.2197 19.147 25.802 17.3276Z" fill="#1F1D25"/>
<path d="M36.125 12.4138H25.8743C26.4647 10.6423 27.0101 9.73626 28.3165 8.27588L36.125 8.27588V12.4138Z" fill="#1F1D25"/>
<path d="M36.125 8.27588V12.4138L41.125 12.4138V8.27588H36.125Z" fill="#1F1D25"/>
<path fill-rule="evenodd" clip-rule="evenodd" d="M45.5 12.4138H41.125V8.27588L45.5 8.27588V12.4138Z" fill="#1F1D25"/>
<path fill-rule="evenodd" clip-rule="evenodd" d="M0.5 8.27588L4.875 8.27588V12.4138H0.5V8.27588Z" fill="#1F1D25"/>
<path fill-rule="evenodd" clip-rule="evenodd" d="M20.198 17.3276C20.3958 16.5777 20.5 15.7989 20.5 15C20.8712 11.7184 21.4531 10.0535 23 7.39343C26.1518 2.96876 31.9695 0 38.625 0H41.125V8.27586H36.125V4.33474C32.9764 4.83724 30.2286 6.27095 28.3165 8.27586C27.0101 9.73623 26.4647 10.6423 25.8743 12.4138C25.6297 13.2426 25.5 14.1088 25.5 15C25.2037 18.1438 24.6075 19.8052 23 22.6066C20.6965 25.8403 16.969 28.2965 12.5312 29.3843V24.9918C14.6859 24.2293 16.544 23.0034 17.9226 21.4655C19.211 20.0697 19.6944 19.1648 20.198 17.3276ZM36.125 12.4138V17.3276V21.4655V25.6653V29.8585C36.9422 29.9518 37.7768 30 38.625 30H41.125V21.4655V17.3276V12.4138L36.125 12.4138Z" fill="#F6A444"/>
<path fill-rule="evenodd" clip-rule="evenodd" d="M41.125 21.4656H45.5V17.3276H41.125V21.4656Z" fill="#F6A444"/>
<path fill-rule="evenodd" clip-rule="evenodd" d="M20.198 17.3276L9.875 17.3276H4.875H0.5L0.5 21.4656H4.875H9.875L17.9226 21.4656C19.211 20.0698 19.6944 19.1649 20.198 17.3276Z" fill="#F6A444"/>
</svg>
